<?xml version="1.0" encoding="UTF-8" standalone="no"?>
<!-- Created with Inkscape (http://www.inkscape.org/) -->

<svg
   width="500"
   height="60"
   viewBox="0 0 132.29155 15.874986"
   version="1.1"
   id="svg1"
   inkscape:version="1.4 (86a8ad7, 2024-10-11)"
   sodipodi:docname="logo.svg"
   xmlns:inkscape="http://www.inkscape.org/namespaces/inkscape"
   xmlns:sodipodi="http://sodipodi.sourceforge.net/DTD/sodipodi-0.dtd"
   xmlns="http://www.w3.org/2000/svg"
   xmlns:svg="http://www.w3.org/2000/svg">
  <sodipodi:namedview
     id="namedview1"
     pagecolor="#505050"
     bordercolor="#ffffff"
     borderopacity="1"
     inkscape:showpageshadow="0"
     inkscape:pageopacity="0"
     inkscape:pagecheckerboard="1"
     inkscape:deskcolor="#505050"
     inkscape:document-units="mm"
     inkscape:zoom="1.516744"
     inkscape:cx="195.81419"
     inkscape:cy="-1.6482676"
     inkscape:window-width="2560"
     inkscape:window-height="1511"
     inkscape:window-x="-9"
     inkscape:window-y="-9"
     inkscape:window-maximized="1"
     inkscape:current-layer="layer1" />
  <defs
     id="defs1" />
  <g
     inkscape:label="Layer 1"
     inkscape:groupmode="layer"
     id="layer1">
    <path
       style="font-size:14.1111px;font-family:Montserrat-Alt1;-inkscape-font-specification:Montserrat-Alt1;letter-spacing:-0.529167px;fill:#ffffff;stroke-width:0.264583"
       d="M 4.2545198,12.883441 V 3.9511145 H 0.78318917 V 3.0056708 H 8.7982941 V 3.9511145 H 5.3269634 v 8.9323265 z m 9.4614962,0.09878 q -1.904999,0 -2.991554,-1.100666 Q 9.6379076,10.780887 9.6379076,8.6501109 V 3.0056708 h 1.0865544 v 5.6162179 q 0,1.7497763 0.776111,2.5682203 0.77611,0.818444 2.215443,0.818444 1.453443,0 2.229553,-0.818444 0.776111,-0.818444 0.776111,-2.5682203 V 3.0056708 h 1.058332 v 5.6444401 q 0,2.1448871 -1.086554,3.2455531 -1.072444,1.086555 -2.977442,1.086555 z m 6.399377,-0.09878 H 18.873616 L 22.613057,7.8034449 19.113505,3.0056708 h 1.241776 l 2.94922,4.0075525 2.935109,-4.0075525 h 1.185333 L 23.92539,7.7752227 27.693054,12.883441 H 26.423055 L 23.262168,8.5654443 Z m 8.544282,-9.8777702 h 3.697108 q 0.945444,0 1.693332,0.2398887 0.761999,0.2257776 1.28411,0.6632217 0.522111,0.4374442 0.790222,1.0724437 0.282222,0.6208884 0.282222,1.41111 0,0.7902216 -0.282222,1.4252211 -0.268111,0.6208884 -0.790222,1.0583325 -0.522111,0.4374441 -1.28411,0.6773328 -0.747888,0.2257776 -1.693332,0.2257776 H 29.732118 V 12.883441 H 28.645564 V 8.8335552 h 3.682997 q 1.481665,0 2.229554,-0.6349995 0.761999,-0.6349995 0.761999,-1.8062208 0,-1.1712213 -0.761999,-1.8062208 -0.747889,-0.6349996 -2.229554,-0.6349996 h -3.682997 z m 17.36371,9.8777702 H 44.838053 L 42.594388,9.7225545 q -0.352778,0.042333 -0.776111,0.042333 H 39.193613 V 12.883441 H 38.107058 V 8.8335552 h 3.682997 q 1.481666,0 2.229554,-0.6349995 0.761999,-0.6349995 0.761999,-1.8062208 0,-1.1712213 -0.761999,-1.8062208 Q 43.271721,3.9511145 41.790055,3.9511145 H 38.107058 V 3.0056708 h 3.711219 q 0.945444,0 1.693332,0.2398887 0.762,0.2257776 1.284111,0.6632217 0.52211,0.4374442 0.790221,1.0724437 0.282222,0.6208884 0.282222,1.41111 0,1.1712213 -0.592666,1.9614429 -0.578555,0.7902216 -1.650999,1.1429991 z m 6.103063,0.09878 q -1.114777,0 -2.074331,-0.381 -0.959555,-0.381 -1.650999,-1.058333 -0.691444,-0.677332 -1.086555,-1.5945539 -0.395111,-0.9313326 -0.395111,-2.0037762 0,-1.0865547 0.395111,-2.0037762 0.395111,-0.9172215 1.086555,-1.5945543 0.691444,-0.6773329 1.650999,-1.0583326 0.959554,-0.3809997 2.074331,-0.3809997 1.114777,0 2.060221,0.3809997 0.959555,0.3809997 1.650999,1.0583326 0.691444,0.6632217 1.086554,1.5945543 0.395111,0.9172215 0.395111,2.0037762 0,1.0865547 -0.395111,2.0178873 -0.39511,0.9172218 -1.086554,1.5945548 -0.691444,0.663221 -1.650999,1.044221 -0.945444,0.381 -2.060221,0.381 z m 0,-0.973666 q 0.874889,0 1.622777,-0.310444 0.761999,-0.310445 1.312332,-0.846666 0.550333,-0.550333 0.860777,-1.2841106 0.310445,-0.7478883 0.310445,-1.6227765 0,-0.8748882 -0.310445,-1.6086654 Q 55.61189,5.5880022 55.061557,5.0517804 54.511224,4.5014475 53.749225,4.1910033 53.001337,3.880559 52.126448,3.880559 q -0.888999,0 -1.650998,0.3104443 -0.747889,0.3104442 -1.298222,0.8607771 -0.550332,0.5362218 -0.860777,1.2841101 -0.310444,0.7337772 -0.310444,1.6086654 0,0.8748882 0.310444,1.6227765 0.310445,0.7337776 0.860777,1.2841106 0.550333,0.536221 1.298222,0.846666 0.761999,0.310444 1.650998,0.310444 z m 14.96483,-0.296333 q -0.719666,0.634999 -1.66511,0.959554 -0.945443,0.310445 -1.975554,0.310445 -1.128888,0 -2.088443,-0.381 -0.945443,-0.381 -1.650998,-1.044221 -0.691444,-0.677333 -1.086555,-1.5945548 -0.395111,-0.9313326 -0.395111,-2.0178873 0,-1.0865547 0.395111,-2.0037762 0.395111,-0.9313326 1.086555,-1.5945543 0.705555,-0.6773329 1.66511,-1.0583326 0.959554,-0.3809997 2.088442,-0.3809997 1.142999,0 2.074332,0.3668886 0.945444,0.3668886 1.622777,1.0865548 L 66.484501,5.0376693 Q 65.849501,4.4167809 65.115724,4.1486699 64.381947,3.880559 63.507059,3.880559 q -0.903111,0 -1.679221,0.3104443 -0.762,0.2963331 -1.326444,0.846666 -0.564444,0.5362218 -0.874888,1.2841101 -0.310444,0.7478883 -0.310444,1.6227765 0,0.8607771 0.310444,1.6086654 0.310444,0.7478887 0.874888,1.2982217 0.564444,0.536221 1.326444,0.846666 0.77611,0.310444 1.679221,0.310444 0.691444,0 1.326443,-0.169333 0.649111,-0.183445 1.213555,-0.592667 V 7.9304448 h 1.044221 z m 10.308168,1.171221 H 76.214113 L 73.970448,9.7225545 q -0.352777,0.042333 -0.77611,0.042333 H 70.569673 V 12.883441 H 69.483119 V 8.8335552 h 3.682997 q 1.481665,0 2.229554,-0.6349995 0.761999,-0.6349995 0.761999,-1.8062208 0,-1.1712213 -0.761999,-1.8062208 Q 74.647781,3.9511145 73.166116,3.9511145 H 69.483119 V 3.0056708 h 3.711219 q 0.945444,0 1.693332,0.2398887 0.761999,0.2257776 1.28411,0.6632217 0.522111,0.4374442 0.790222,1.0724437 0.282222,0.6208884 0.282222,1.41111 0,1.1712213 -0.592667,1.9614429 -0.578555,0.7902216 -1.650998,1.1429991 z m 1.333515,0 h -1.128888 l 4.501441,-9.8777702 h 1.072443 l 4.515552,9.8777702 H 86.55051 L 82.641736,4.1345588 Z m 11.098372,0 H 88.787112 V 3.0056708 h 0.888999 l 4.275663,7.2672162 4.219219,-7.2672162 h 0.903111 V 12.883441 H 98.029882 V 5.0800026 l -3.85233,6.5475504 h -0.508 L 89.831333,5.136447 Z m 12.946937,0 h -1.04422 V 3.0056708 h 0.889 l 4.27566,7.2672162 4.21922,-7.2672162 h 0.90311 v 9.8777702 h -1.04422 V 5.0800026 l -3.85233,6.5475504 h -0.508 l -3.83822,-6.491106 z m 11.90271,-5.4751069 h 6.80155 v 0.9172215 h -6.80155 z m 0,-4.5155521 h 6.80155 v 0.9454437 h -6.80155 z m 0,9.990659 h 6.80155 v -0.945444 h -6.80155 z m 16.8275,0 h -1.18533 l -2.24367,-3.1608865 q -0.35278,0.042333 -0.77611,0.042333 h -2.62467 v 3.1185532 h -1.08655 V 8.8335552 h 3.683 q 1.48166,0 2.22955,-0.6349995 0.762,-0.6349995 0.762,-1.8062208 0,-1.1712213 -0.762,-1.8062208 -0.74789,-0.6349996 -2.22955,-0.6349996 h -3.683 V 3.0056708 h 3.71122 q 0.94544,0 1.69333,0.2398887 0.762,0.2257776 1.28411,0.6632217 0.52211,0.4374442 0.79022,1.0724437 0.28223,0.6208884 0.28223,1.41111 0,1.1712213 -0.59267,1.9614429 -0.57856,0.7902216 -1.651,1.1429991 z"
       id="text1"
       aria-label="TUXPROGRAMMER" />
  </g>
</svg>
